<svg id="Layer_2" data-name="Layer 2" xmlns="http://www.w3.org/2000/svg" viewBox="0 0 37.1 17.72">
  <defs>
    <style>
      .cls-1 {
        fill: #fff;
        stroke-width: 0px;
      }
    </style>
  </defs>
  <g id="Layer_1-2" data-name="Layer 1">
    <path class="cls-1" d="m17.87,8.94c0,3.55-2.07,6.62-5.08,8.05,1.53-1.15,2.51-2.99,2.51-5.05,0-3.51-2.85-6.36-6.36-6.36-1.29,0-2.48.38-3.48,1.04-.37.23-.71.51-1.02.82h-.01c-1.14,1.16-1.85,2.74-1.85,4.5,0,2.05.97,3.88,2.49,5.05C2.07,15.55,0,12.48,0,8.94c0-2.47,1-4.7,2.61-6.31h.01c.44-.45.91-.84,1.43-1.17,1.41-.93,3.08-1.46,4.89-1.46,4.93,0,8.93,4,8.93,8.94Z"/>
    <path class="cls-1" d="m19.23,8.78c0-3.55,2.07-6.62,5.08-8.05-1.53,1.15-2.51,2.99-2.51,5.05,0,3.51,2.85,6.36,6.36,6.36,1.29,0,2.48-.38,3.48-1.04.37-.23.71-.51,1.02-.82h.01c1.14-1.16,1.85-2.74,1.85-4.5,0-2.05-.97-3.88-2.49-5.05,3,1.44,5.07,4.51,5.07,8.05,0,2.47-1,4.7-2.61,6.31h-.01c-.44.45-.91.84-1.43,1.17-1.41.93-3.08,1.46-4.89,1.46-4.93,0-8.93-4-8.93-8.94Z"/>
  </g>
</svg>