<?xml version="1.0" encoding="UTF-8"?>
<svg id="Layer_2" data-name="Layer 2" xmlns="http://www.w3.org/2000/svg" xmlns:xlink="http://www.w3.org/1999/xlink" viewBox="0 0 385.18 327.83">
  <defs>
    <style>
      .cls-1 {
        fill: #9451a0;
      }

      .cls-1, .cls-2, .cls-3, .cls-4 {
        stroke-width: 0px;
      }

      .cls-2 {
        fill: #7d4287;
      }

      .cls-5 {
        fill: #fff;
      }

      .cls-5, .cls-6, .cls-7 {
        stroke: #231f20;
        stroke-linecap: round;
        stroke-miterlimit: 10;
        stroke-width: 9px;
      }

      .cls-6 {
        fill: #231f20;
      }

      .cls-7, .cls-3 {
        fill: none;
      }

      .cls-8 {
        clip-path: url(#clippath-1);
      }

      .cls-9 {
        opacity: .15;
      }

      .cls-4 {
        fill: #9c86a0;
      }

      .cls-10 {
        clip-path: url(#clippath);
      }
    </style>
    <clipPath id="clippath">
      <rect class="cls-3" width="192.59" height="273.37"/>
    </clipPath>
    <clipPath id="clippath-1">
      <rect class="cls-3" x="192.59" y="0" width="192.59" height="273.37"/>
    </clipPath>
  </defs>
  <g id="Layer_1-2" data-name="Layer 1">
    <g>
      <circle class="cls-1" cx="194.17" cy="187.1" r="140.73"/>
      <circle class="cls-2" cx="161.7" cy="103.61" r="37.79"/>
      <circle class="cls-2" cx="249.78" cy="135.49" r="23.97"/>
      <circle class="cls-2" cx="99.94" cy="187.1" r="23.97"/>
      <circle class="cls-2" cx="279.65" cy="230.7" r="29.87"/>
      <circle class="cls-2" cx="196.66" cy="201.18" r="19.15"/>
      <circle class="cls-2" cx="133.58" cy="253.29" r="13.4"/>
      <circle class="cls-2" cx="205.96" cy="284.31" r="13.4"/>
      <g class="cls-9">
        <path class="cls-4" d="m296.25,90.25c-22.93-16.21-50.93-25.74-81.15-25.74-77.72,0-140.73,63.01-140.73,140.73,0,37.51,14.68,71.6,38.62,96.83-36.03-25.48-59.55-67.47-59.55-114.96,0-77.72,63-140.73,140.72-140.73,40.19,0,76.45,16.85,102.09,43.87Z"/>
      </g>
      <g>
        <g id="_Mirror_Repeat_" data-name="&amp;lt;Mirror Repeat&amp;gt;">
          <g class="cls-10">
            <path class="cls-4" d="m46.38,159.46h-24.35c.37-13.1,3.34-64.97,44.47-108.46C116.2-1.55,182.3-.29,192.59.08v28.26c-10.11-.52-56.85-1.85-97.7,33.02-44.17,37.7-47.99,89.15-48.5,98.1Z"/>
            <rect class="cls-2" y="128.98" width="59.74" height="144.38" rx="9.16" ry="9.16"/>
          </g>
        </g>
        <g id="_Mirror_Repeat_-2" data-name="&amp;lt;Mirror Repeat&amp;gt;">
          <g class="cls-8">
            <path class="cls-4" d="m338.8,159.46h24.35c-.37-13.1-3.34-64.97-44.47-108.46C268.98-1.55,202.88-.29,192.59.08v28.26c10.11-.52,56.85-1.85,97.7,33.02,44.17,37.7,47.99,89.15,48.5,98.1Z"/>
            <rect class="cls-2" x="325.44" y="128.98" width="59.74" height="144.38" rx="9.16" ry="9.16" transform="translate(710.61 402.35) rotate(180)"/>
          </g>
        </g>
      </g>
      <path class="cls-7" d="m209.36,283.63c5.5.7,23.61,2.3,41.87-8.85,21.77-13.29,27.78-34.95,28.94-39.49"/>
      <circle class="cls-6" cx="128.85" cy="184.06" r="30.81"/>
      <circle class="cls-6" cx="236.77" cy="156.29" r="30.81"/>
      <circle class="cls-5" cx="138.07" cy="188.79" r="17.89"/>
      <circle class="cls-5" cx="244.76" cy="164.14" r="17.89"/>
      <circle class="cls-5" cx="114.96" cy="170.9" r="8.94"/>
      <circle class="cls-5" cx="222.46" cy="146.25" r="8.94"/>
    </g>
  </g>
</svg>